<svg width="112" height="152" viewBox="0 0 112 152" fill="none" xmlns="http://www.w3.org/2000/svg">
<path d="M56.4834 122.436C56.8927 122.15 58.0131 122.085 58.5654 122.417C58.7582 122.639 58.9509 123.012 58.9873 123.132C59.0023 123.196 59.0203 123.299 59.0254 123.339C59.0333 123.409 59.0348 123.466 59.0352 123.484C59.0365 123.556 59.0322 123.626 59.0312 123.643C59.0276 123.708 59.0213 123.8 59.0127 123.909C58.8238 126.319 58.5516 128.958 58.3281 130.988C58.3237 131.028 58.3188 131.068 58.3145 131.107L59.2705 130.431C59.9463 129.952 60.8823 130.111 61.3613 130.787C61.8398 131.463 61.6806 132.399 61.0049 132.878L57.8643 135.103C57.8436 135.312 57.8225 135.523 57.8018 135.733C57.4571 139.227 57.104 142.831 56.8369 145.561C56.7034 146.925 56.5913 148.072 56.5127 148.877C56.4734 149.279 56.443 149.597 56.4219 149.813C56.4114 149.921 56.4029 150.005 56.3975 150.061C56.3947 150.088 56.392 150.111 56.3906 150.125C56.39 150.132 56.39 150.137 56.3896 150.141C56.3894 150.142 56.3887 150.144 56.3887 150.145V150.146L54.8965 150.001L53.4033 149.854V149.85C53.4037 149.846 53.4046 149.841 53.4053 149.834C53.4067 149.82 53.4084 149.797 53.4111 149.77C53.4166 149.714 53.425 149.63 53.4355 149.522C53.4567 149.306 53.4881 148.987 53.5273 148.585C53.606 147.78 53.718 146.632 53.8516 145.268C54.0784 142.949 54.367 140 54.6602 137.023C53.4938 137.694 52.0743 138.511 50.7422 139.285C50.6938 139.313 50.6448 139.341 50.5967 139.369L49.3984 150.166C49.3066 150.989 48.5641 151.582 47.7412 151.491C46.9183 151.399 46.3249 150.657 46.416 149.834L47.3467 141.456C47.1802 141.549 47.0089 141.643 46.8311 141.732C46.6115 141.842 46.422 141.933 46.2822 141.992C46.2547 142.004 46.0807 142.08 45.8828 142.117C45.8284 142.127 45.6746 142.155 45.4795 142.14C45.3631 142.13 44.7054 142.07 44.3105 141.421C43.9003 140.746 44.1799 140.116 44.2393 139.991C44.3286 139.804 44.4364 139.679 44.4736 139.637C44.6103 139.482 44.7699 139.372 44.7881 139.358C44.8503 139.313 44.92 139.266 44.9873 139.222C45.1243 139.132 45.3027 139.02 45.5068 138.895C46.0173 138.581 46.7585 138.14 47.6084 137.642C47.673 137.587 47.7335 137.537 47.7871 137.49L49.0371 126.246C49.1287 125.423 49.8704 124.83 50.6934 124.921C51.5165 125.013 52.11 125.755 52.0186 126.578L51.0078 135.668C51.9375 135.131 52.8365 134.611 53.5947 134.176C54.1676 133.847 54.6597 133.564 55.0234 133.355C55.2932 130.629 55.5441 128.096 55.7305 126.261C55.8468 125.115 55.9384 124.235 55.9922 123.749C56.0056 123.628 56.017 123.527 56.0264 123.45C56.0288 123.43 56.0458 123.277 56.0742 123.159C56.0772 123.147 56.1011 123.042 56.1533 122.919C56.1926 122.834 56.3498 122.586 56.4834 122.436ZM54.8965 150.001L56.3887 150.146C56.3078 150.97 55.5748 151.573 54.751 151.493C53.9269 151.413 53.3235 150.68 53.4033 149.855L54.8965 150.001ZM63.6318 132.774C64.4602 132.774 65.1317 133.446 65.1318 134.274V150C65.1317 150.828 64.4602 151.5 63.6318 151.5C62.8038 151.5 62.132 150.828 62.1318 150V134.274C62.132 133.446 62.8038 132.775 63.6318 132.774ZM70.3857 124.756C71.2254 124.149 72.4029 123.677 73.7168 124.115C74.704 124.445 75.4659 125.063 75.9141 125.938C76.3391 126.768 76.4104 127.687 76.334 128.527C76.2311 129.658 75.8344 130.881 75.3281 132.061C76.181 131.554 77.0639 131.132 77.918 130.908C78.6839 130.708 79.5599 130.628 80.4102 130.907C81.312 131.204 82.0042 131.844 82.4473 132.73C83.584 135.004 83.2545 137.261 82.2832 139.204C81.3353 141.1 79.7447 142.783 78.1504 144.149C76.5395 145.53 74.8277 146.67 73.5312 147.459C72.8807 147.855 72.3264 148.168 71.9336 148.382C71.7377 148.489 71.5799 148.572 71.4707 148.629C71.4168 148.657 71.3736 148.68 71.3438 148.695C71.3295 148.703 71.317 148.709 71.3086 148.713C71.3049 148.715 71.3004 148.717 71.2979 148.718L71.2949 148.72H71.2939L70.6221 147.379L71.293 148.721L69.46 149.637L69.1406 147.613L66.5195 131.014L66.4531 130.603L66.6104 130.217L66.6113 130.216V130.215L66.6123 130.213C66.6128 130.211 66.6135 130.209 66.6143 130.207C66.6161 130.203 66.6192 130.196 66.6221 130.189C66.6282 130.175 66.6368 130.153 66.6475 130.128C66.6693 130.076 66.7011 130.002 66.7412 129.911C66.8218 129.729 66.9393 129.472 67.0879 129.17C67.3829 128.57 67.8151 127.763 68.3506 126.974C68.8742 126.202 69.5601 125.353 70.3857 124.756ZM41.1494 121.974C42.4829 121.451 44.0107 121.504 45.373 122.639C47.2844 124.231 47.481 126.494 47.0195 128.542C46.5648 130.559 45.4283 132.666 44.2129 134.507C42.9815 136.372 41.5894 138.08 40.5146 139.314C39.9756 139.933 39.5114 140.439 39.1807 140.791C39.1675 140.805 39.1533 140.819 39.1406 140.832L39.7891 147.228C39.8726 148.052 39.2723 148.787 38.4482 148.871C37.6242 148.954 36.8882 148.354 36.8047 147.53L36.0869 140.444L36.0859 140.438L36.085 140.43L35.0557 129.169L35.0156 128.725L35.2246 128.33L36.5498 129.033C35.2443 128.341 35.2247 128.33 35.2246 128.329L35.2256 128.328L35.2266 128.326C35.2275 128.324 35.2291 128.322 35.2305 128.319C35.2334 128.314 35.2373 128.306 35.2422 128.297C35.2524 128.278 35.2679 128.251 35.2861 128.218C35.3229 128.151 35.3758 128.056 35.4434 127.938C35.5786 127.704 35.7743 127.374 36.0195 126.991C36.5061 126.231 37.2094 125.224 38.0488 124.301C38.866 123.402 39.927 122.453 41.1494 121.974ZM31.4912 120.191C31.7551 120.124 32.4461 120.24 32.7725 120.556C32.9466 120.702 33.0622 120.858 33.1436 120.994C33.2249 121.136 33.2347 121.167 33.2686 121.246C33.3244 121.384 33.3571 121.503 33.3809 121.613C33.4299 121.857 33.4328 121.959 33.4424 122.087C33.4499 122.211 33.4514 122.335 33.4502 122.461C33.4463 122.848 33.4109 123.254 33.375 123.6C33.2972 124.33 33.2009 124.986 33.0938 125.692C32.2483 131.054 31.2328 136.351 31.0215 141.588C30.9848 142.609 30.9864 143.672 31.0566 144.652C31.0849 145.049 30.9548 145.442 30.6943 145.742C30.4338 146.043 30.0637 146.228 29.667 146.256C29.2705 146.284 28.8785 146.154 28.5781 145.894C28.2776 145.633 28.0928 145.263 28.0645 144.866C27.984 143.739 27.9843 142.577 28.0234 141.48C28.2068 137.004 28.9172 132.643 29.6191 128.369C28.8831 129.934 28.1604 131.527 27.4346 133.143C27.3696 133.287 27.3061 133.421 27.2422 133.547C27.1612 133.704 27.0931 133.832 26.9678 134.023C26.8956 134.13 26.8371 134.215 26.7139 134.352C26.6373 134.435 26.5461 134.523 26.4199 134.615C26.3492 134.665 26.309 134.696 26.1758 134.765C26.0415 134.832 25.8723 134.894 25.6719 134.924C25.2717 134.996 24.7564 134.847 24.4746 134.62C24.3307 134.514 24.2149 134.384 24.1514 134.301C24.0954 134.228 24.0513 134.16 24.0146 134.097C23.8664 133.828 23.8372 133.691 23.7998 133.565C23.6046 132.676 23.6498 132.276 23.626 131.72C23.6258 131.71 23.6251 131.699 23.625 131.689C23.3379 133.31 23.0674 134.937 22.8047 136.566C22.6336 137.63 22.4662 138.692 22.3076 139.74C22.2486 140.133 22.0356 140.487 21.7158 140.724C21.396 140.96 20.9949 141.06 20.6016 141.001C20.2084 140.942 19.8545 140.729 19.6182 140.409C19.3818 140.089 19.2819 139.688 19.3408 139.295C19.5026 138.226 19.6701 137.164 19.8428 136.09C20.2134 133.791 20.5993 131.497 21.0283 129.199C21.2436 128.051 21.4692 126.901 21.7266 125.739C21.8543 125.166 21.9919 124.577 22.1553 123.979C22.2359 123.687 22.3215 123.386 22.4443 123.039C22.5002 122.883 22.5762 122.681 22.6787 122.476C22.7361 122.362 22.8261 122.193 22.9756 122.011C23.0874 121.882 23.2679 121.663 23.6719 121.497C23.8318 121.425 24.2459 121.337 24.5918 121.424C24.9469 121.501 25.2175 121.694 25.3799 121.858C26.1896 122.785 26.1908 123.393 26.3457 123.983C26.4591 124.566 26.5138 125.108 26.5537 125.642C26.603 126.333 26.6214 127.011 26.6289 127.68C27.1239 126.618 27.6266 125.56 28.1504 124.505C28.481 123.844 28.7806 123.261 29.125 122.641C29.2719 122.375 29.5076 121.97 29.6777 121.706C29.9707 121.307 29.9778 121.083 30.7705 120.467C30.9359 120.362 31.1572 120.241 31.4912 120.191ZM79.4736 133.757C79.3666 133.722 79.1234 133.694 78.6787 133.811C77.7592 134.052 76.5477 134.756 75.249 135.727C73.9861 136.671 72.7748 137.765 71.8711 138.632C71.4833 139.004 71.1553 139.332 70.9092 139.582L71.7666 145.017C71.8328 144.977 71.903 144.938 71.9717 144.896C73.1866 144.157 74.7522 143.111 76.1982 141.872C77.6609 140.618 78.9097 139.242 79.5996 137.862C80.2656 136.53 80.3734 135.292 79.7637 134.072C79.6359 133.817 79.5291 133.775 79.4736 133.757ZM84.3057 124.067C85.1177 123.905 85.9078 124.432 86.0703 125.244C87.7861 133.823 89.4571 136.55 90.3721 138.99C90.6626 139.766 90.2694 140.63 89.4941 140.921C88.7187 141.211 87.8543 140.818 87.5635 140.043C86.7312 137.824 84.9075 134.725 83.1289 125.833C82.9666 125.021 83.4936 124.23 84.3057 124.067ZM16.6592 113.713C17.0278 113.529 17.5081 113.425 18.0244 113.564C18.5156 113.697 18.8505 113.999 19.0576 114.256C19.4367 114.726 19.6253 115.335 19.7373 115.813C19.9785 116.844 20.0791 118.259 20.1025 119.725C20.1437 122.304 19.9474 125.38 19.6533 127.609C19.7379 127.667 19.8228 127.727 19.9092 127.784C20.5981 128.244 20.7843 129.175 20.3252 129.864C20.0579 130.265 19.6305 130.495 19.1846 130.527C19.0491 131.342 18.9284 132.105 18.8418 132.821C18.6873 134.101 18.6661 135.054 18.8008 135.728C18.9632 136.54 18.4361 137.33 17.624 137.492C16.8118 137.654 16.0218 137.128 15.8594 136.315C15.6265 135.151 15.7014 133.801 15.8633 132.461C15.9944 131.376 16.1993 130.177 16.4043 128.963C15.6259 128.37 14.9075 127.784 14.2119 127.22C13.661 126.773 13.1189 126.34 12.5566 125.911C12.4492 126.878 12.501 127.816 12.6855 128.738C12.848 129.55 12.3209 130.341 11.5088 130.504C10.6967 130.666 9.90572 130.139 9.74316 129.327C8.72707 124.247 10.8692 119.395 16.2695 113.994L16.4414 113.821L16.6592 113.713ZM43.4521 124.943C43.052 124.61 42.714 124.583 42.2432 124.768C41.6614 124.996 40.9757 125.541 40.2686 126.319C39.5838 127.073 38.9825 127.928 38.5459 128.609C38.3552 128.907 38.1993 129.167 38.0859 129.361L38.7607 136.75C39.6868 135.654 40.7583 134.295 41.71 132.854C42.8578 131.115 43.7576 129.369 44.0928 127.883C44.4209 126.427 44.1612 125.534 43.4521 124.943ZM89.3525 115.377C90.2607 114.997 91.1688 115.161 91.9023 115.51C92.6499 115.866 93.3271 116.458 93.916 117.092C95.1041 118.371 96.2657 120.19 97.2637 121.964C97.5954 122.554 97.9133 123.15 98.2148 123.731L99.8945 123.229C100.688 122.991 101.524 123.441 101.762 124.234C101.999 125.028 101.549 125.863 100.756 126.102L99.5566 126.461C99.6417 126.643 99.726 126.817 99.8037 126.986C100.123 127.681 100.381 128.265 100.559 128.677C100.647 128.882 100.716 129.046 100.764 129.158C100.787 129.214 100.806 129.257 100.818 129.287C100.825 129.302 100.83 129.314 100.833 129.322C100.834 129.326 100.836 129.329 100.837 129.331C100.837 129.332 100.838 129.333 100.838 129.334V129.335L100.89 129.48C101.106 130.209 100.74 130.998 100.022 131.294C99.2566 131.609 98.3799 131.243 98.0645 130.478L98.0635 130.477C98.0629 130.475 98.0617 130.473 98.0605 130.47C98.058 130.464 98.0542 130.453 98.0488 130.44C98.0379 130.414 98.0209 130.374 97.999 130.322C97.9551 130.218 97.8895 130.063 97.8047 129.867C97.6345 129.473 97.3864 128.91 97.0781 128.24C96.9468 127.955 96.8037 127.651 96.6523 127.332L93.0283 128.419C93.3398 129.456 93.6424 130.421 93.9062 131.239C94.154 132.008 94.3667 132.646 94.5166 133.09C94.5915 133.312 94.651 133.486 94.6914 133.604C94.7115 133.662 94.727 133.707 94.7373 133.737C94.7424 133.752 94.7465 133.763 94.749 133.771C94.7502 133.774 94.7513 133.777 94.752 133.778V133.781C95.0243 134.563 94.6118 135.419 93.8301 135.691C93.048 135.964 92.1927 135.55 91.9199 134.769L93.3359 134.274L91.9189 134.768C91.9187 134.767 91.9183 134.766 91.918 134.765C91.9172 134.762 91.9164 134.759 91.915 134.755C91.9121 134.746 91.9078 134.734 91.9023 134.718C91.8912 134.686 91.8744 134.638 91.8535 134.577C91.8115 134.455 91.7504 134.276 91.6738 134.049C91.5204 133.594 91.3042 132.943 91.0518 132.16C90.5475 130.596 89.8956 128.492 89.3125 126.347C88.733 124.215 88.2053 121.987 87.9678 120.195C87.8505 119.311 87.7915 118.446 87.8643 117.721C87.9006 117.359 87.9767 116.954 88.1436 116.575C88.3131 116.191 88.6235 115.734 89.1709 115.46L89.3525 115.377ZM72.7686 126.961C72.7096 126.941 72.5438 126.898 72.1445 127.187C71.7306 127.486 71.2761 128.005 70.833 128.658C70.4021 129.293 70.0389 129.968 69.7803 130.494C69.6884 130.681 69.6117 130.847 69.5508 130.981L70.2129 135.175C70.7814 134.292 71.3845 133.292 71.9102 132.275C72.7094 130.73 73.2502 129.305 73.3457 128.255C73.3919 127.745 73.3205 127.455 73.2441 127.306C73.1908 127.202 73.0907 127.068 72.7686 126.961ZM63.6318 127.286C64.5968 127.286 65.3789 128.068 65.3789 129.033C65.3787 129.998 64.5967 130.78 63.6318 130.78C62.6672 130.78 61.8849 129.998 61.8848 129.033C61.8848 128.068 62.6671 127.286 63.6318 127.286ZM90.833 118.344C90.8285 118.71 90.8623 119.196 90.9424 119.801C91.1521 121.383 91.6327 123.446 92.2002 125.536L95.2891 124.609C95.082 124.219 94.8688 123.825 94.6494 123.435C93.6819 121.715 92.6589 120.146 91.7178 119.133C91.3646 118.753 91.0672 118.499 90.833 118.344ZM16.9854 117.595C15.2888 119.484 14.1328 121.208 13.4199 122.82C14.398 123.518 15.268 124.214 16.1016 124.89C16.3583 125.098 16.6137 125.301 16.8662 125.505C17.0312 123.701 17.1317 121.603 17.1025 119.773C17.0893 118.943 17.0486 118.205 16.9854 117.595ZM84.5996 118.55C85.5643 118.55 86.3466 119.332 86.3467 120.297C86.3466 121.262 85.5643 122.044 84.5996 122.044C83.6348 122.044 82.8527 121.262 82.8525 120.297C82.8526 119.332 83.6348 118.55 84.5996 118.55ZM74.6611 81.4834C79.3263 79.5372 85.5494 77.4677 92.2773 79.0693C92.8141 79.1973 93.1458 79.7376 93.0186 80.2744C92.8905 80.8113 92.3515 81.1432 91.8145 81.0156C86.0201 79.6362 80.5536 81.2502 76.0781 83.0635C77.2976 84.352 78.4858 86.1496 79.6074 88.5371L85.0459 88.043L92.5459 86.043L96.5459 92.543L87.0459 101.043L79.5459 107.543H79.2539C79.4414 108.006 79.5458 108.513 79.5459 109.043C79.5458 111.252 77.7548 113.043 75.5459 113.043C73.7954 113.043 72.3088 111.918 71.7666 110.352C71.1792 110.541 70.6178 110.64 70.0762 110.644C68.6772 110.654 67.5846 110.047 66.6816 109.216C65.8095 108.413 65.0426 107.334 64.3037 106.306C63.6192 105.353 62.9291 104.402 62.1201 103.542H45.4717C44.6627 104.402 43.9726 105.353 43.2881 106.306C42.5492 107.334 41.7823 108.413 40.9102 109.216C40.0072 110.046 38.9146 110.654 37.5156 110.644C37.099 110.64 36.6704 110.583 36.2275 110.47C35.6187 111.902 34.1999 112.906 32.5459 112.906C30.3369 112.906 28.5459 111.115 28.5459 108.906C28.546 108.376 28.6504 107.869 28.8379 107.406H28.5459L21.0459 100.906L11.5459 92.4062L15.5459 85.9062L23.0459 87.9062L28.5459 88.4062L28.8076 88.3818C29.9708 85.9387 31.2069 84.1267 32.4717 82.8525C28.0371 81.1333 22.3496 79.689 16.7773 81.0156C16.2403 81.1432 15.7013 80.8113 15.5732 80.2744C15.4461 79.7376 15.7777 79.1973 16.3145 79.0693C22.9525 77.4891 29.5871 79.4815 34.2568 81.4111C35.7064 80.5168 37.1692 80.2526 38.585 80.4883C40.159 80.7507 41.4968 81.6201 42.4902 82.6221C43.4513 83.5915 44.1635 84.7581 44.4814 85.7988C45.3801 87.795 46.4844 88.4908 47.3418 88.6973C48.002 88.8559 48.6155 88.7497 49.0459 88.5811V87.1777H48.0459C47.4941 87.1773 47.0461 86.7295 47.0459 86.1777C47.0463 85.6261 47.4943 85.1782 48.0459 85.1777H52.0459C52.5978 85.1779 53.0455 85.6259 53.0459 86.1777C53.0457 86.7297 52.5979 87.1776 52.0459 87.1777H51.0459V87.999C52.092 87.6271 53.178 87.5073 54.1709 87.5312C55.164 87.5072 56.2504 87.627 57.2969 87.999V87.1777H56.2969C55.7448 87.1776 55.2971 86.7298 55.2969 86.1777C55.2973 85.6259 55.745 85.1779 56.2969 85.1777H60.2969C60.8486 85.1781 61.2964 85.626 61.2969 86.1777C61.2967 86.7296 60.8487 87.1774 60.2969 87.1777H59.2969V88.5811C59.7273 88.7498 60.3406 88.8559 61.001 88.6973C61.8584 88.4908 62.9626 87.7951 63.8613 85.7988C64.1793 84.7581 64.8915 83.5915 65.8525 82.6221C66.846 81.6201 68.1838 80.7507 69.7578 80.4883C71.2821 80.2345 72.8608 80.56 74.4189 81.6279C74.4907 81.5703 74.5719 81.5206 74.6611 81.4834ZM38.2568 82.4609C36.4757 82.1645 33.8525 83.0485 31.1514 88.168L33.0283 87.998C33.7059 86.7521 35.0279 85.9064 36.5459 85.9062C38.7546 85.9064 40.5455 87.6976 40.5459 89.9062C40.5459 92.1153 38.7549 93.9061 36.5459 93.9062C35.0472 93.9061 33.7417 93.0813 33.0566 91.8613L33.0459 91.9062L26.0459 94.4062L33.0859 96.7529C33.7644 96.223 34.6184 95.9063 35.5459 95.9062C37.7546 95.9064 39.5455 97.6976 39.5459 99.9062C39.5459 102.115 37.7549 103.906 35.5459 103.906C33.4761 103.906 31.7727 102.334 31.5664 100.318L26.5459 99.4062L32.0742 104.935C32.2287 104.916 32.3865 104.906 32.5459 104.906C34.6091 104.906 36.3073 106.469 36.5225 108.476C36.9049 108.592 37.2378 108.641 37.5293 108.644C38.2703 108.649 38.8974 108.351 39.5566 107.744C40.2464 107.109 40.8868 106.219 41.6631 105.139C42.4156 104.091 43.2732 102.901 44.3389 101.835L44.6318 101.542H62.96L63.2529 101.835C64.3186 102.901 65.1762 104.091 65.9287 105.139C66.705 106.219 67.3454 107.109 68.0352 107.744C68.6944 108.351 69.3215 108.649 70.0625 108.644C70.4858 108.64 70.9958 108.536 71.6191 108.274C71.9777 106.433 73.6 105.043 75.5459 105.043C75.7049 105.043 75.8624 105.053 76.0166 105.071L81.5459 99.543L76.5244 100.455C76.318 102.47 74.6157 104.043 72.5459 104.043C70.337 104.043 68.546 102.252 68.5459 100.043C68.5463 97.8343 70.3372 96.0432 72.5459 96.043C73.4732 96.043 74.3265 96.36 75.0049 96.8896L82.0459 94.543L75.0459 92.043L75.0342 91.998C74.3491 93.2177 73.0444 94.0429 71.5459 94.043C69.337 94.0428 67.546 92.2519 67.5459 90.043C67.5463 87.8343 69.3372 86.0432 71.5459 86.043C73.0637 86.0431 74.3849 86.889 75.0625 88.1348L77.2793 88.3359C74.5472 83.0678 71.8864 82.1612 70.0859 82.4609C69.0359 82.6361 68.0599 83.2361 67.2725 84.0303C66.4804 84.8293 65.9554 85.7496 65.7588 86.4365L65.7393 86.5039L65.7109 86.5684C64.6136 89.0373 63.0621 90.2591 61.4678 90.6426C59.9331 91.0113 58.514 90.5611 57.7158 89.9912L57.5381 89.8643C57.4842 89.8443 57.4308 89.8194 57.3809 89.7861C57.0246 89.5488 55.9878 89.1704 54.6592 89.0596C54.4987 89.0462 54.3352 89.0369 54.1709 89.0322C54.0069 89.0369 53.8437 89.0462 53.6836 89.0596C52.3551 89.1704 51.3182 89.5489 50.9619 89.7861C50.9121 89.8193 50.8585 89.8444 50.8047 89.8643L50.627 89.9912C49.8288 90.5611 48.4095 91.0113 46.875 90.6426C45.2807 90.259 43.7291 89.0372 42.6318 86.5684L42.6035 86.5039L42.584 86.4365C42.3874 85.7496 41.8624 84.8293 41.0703 84.0303C40.2829 83.2361 39.3068 82.6361 38.2568 82.4609ZM18.3711 25.0293C22.6595 23.4221 31.1627 25.1306 40.5146 40.4756C45.8333 38.488 52.3489 38.1253 58.0176 38.499C60.8826 38.688 63.5474 39.0656 65.75 39.5234C67.6729 39.9233 69.2722 40.39 70.3496 40.8555C79.4946 25.6534 87.8555 23.533 92.3008 24.8867L92.7227 25.0293L92.7314 25.0332L92.7402 25.0361C97.1145 26.8716 100.006 29.443 101.769 32.4209C103.528 35.3946 104.143 38.7399 104.035 42.0889C103.826 48.5423 100.931 55.0958 98.2354 59.3301C100.267 60.6484 102.352 63.2689 103.275 66.1328C103.774 67.6791 103.945 69.3308 103.562 70.9072C103.177 72.4846 102.242 73.9551 100.601 75.1494C98.7582 76.8726 96.2584 77.0887 93.3652 76.5723C90.4779 76.0565 87.0569 74.7872 83.251 73.375C83.2305 73.3674 83.2081 73.3592 83.1875 73.3516C75.4828 70.4927 66.0607 67.0096 55.5703 67.4971L55.5469 67.498L55.5234 67.4971C45.0329 67.0093 35.6111 70.4927 27.9062 73.3516C27.8872 73.3586 27.8667 73.366 27.8477 73.373C24.0395 74.7861 20.6163 76.0562 17.7275 76.5723C14.8342 77.0888 12.3347 76.8726 10.4922 75.1494C8.85063 73.9552 7.91678 72.4844 7.53223 70.9072C7.14859 69.3307 7.32013 67.6792 7.81836 66.1328C8.7419 63.2689 10.8255 60.6483 12.8574 59.3301C10.1618 55.0958 7.26767 48.5422 7.05859 42.0889C6.95049 38.7397 7.56541 35.3948 9.3252 32.4209C11.0881 29.4429 13.9788 26.8715 18.3535 25.0361L18.3623 25.0332L18.3711 25.0293ZM94.7812 71.1592C53.402 48.2453 19.3804 69.1746 16.6914 70.6162C16.4513 70.5007 16.234 70.4142 16.041 70.3574C15.8341 70.2967 15.6075 70.256 15.3896 70.2754C15.1998 70.2926 14.781 70.3901 14.6074 70.8281C14.4454 71.2397 14.6513 71.5823 14.7559 71.7168C14.9965 72.0257 15.3997 72.2112 15.8057 72.2705C16.2429 72.3339 16.7542 72.2664 17.2832 72.002C19.3281 70.9771 52.9759 49.704 94.085 72.4873C94.0873 72.4885 94.0905 72.49 94.0928 72.4912C94.099 72.4946 94.106 72.4988 94.1123 72.502C94.1187 72.505 94.1265 72.5076 94.1328 72.5107C94.143 72.5155 94.1538 72.5212 94.1641 72.5254C95.2649 73.0474 96.3179 72.6565 96.8018 72.2178C96.9128 72.1168 97.0984 71.9208 97.1631 71.6436C97.2 71.4838 97.2055 71.243 97.0625 71.0107C96.9207 70.7813 96.7063 70.6787 96.5537 70.6377C96.2864 70.5665 96.0163 70.6252 95.8389 70.6758C95.6298 70.7355 95.3864 70.8347 95.1123 70.9717C95.0064 71.0247 94.9207 71.1031 94.8535 71.1914C94.8307 71.1819 94.8063 71.1716 94.7832 71.1602L94.7812 71.1592ZM3.13086 32.0293C4.13278 31.4704 5.25015 31.1419 6.13965 31.2529C6.54979 31.3047 6.84168 31.6796 6.79102 32.0898C6.73942 32.5003 6.36363 32.7921 5.95312 32.7412C5.50967 32.6861 4.72576 32.8582 3.8623 33.3398C3.02041 33.8097 2.20933 34.5168 1.68945 35.3828C1.68849 35.3846 1.68463 35.3921 1.67969 35.4033C1.67372 35.417 1.66566 35.4374 1.65723 35.4629C1.63962 35.5163 1.62079 35.5899 1.60254 35.6836C1.56564 35.8737 1.53695 36.1248 1.51953 36.4346C1.48475 37.0548 1.4978 37.8616 1.55469 38.8037C1.66839 40.6854 1.95211 43.0508 2.33691 45.4404C2.72167 47.8296 3.20496 50.2276 3.71289 52.1748C3.96699 53.1488 4.22462 54.0008 4.47559 54.6768C4.73393 55.3724 4.96159 55.8152 5.13184 56.0283L5.36328 56.3174C5.39696 56.3331 5.43101 56.3518 5.46289 56.373C6.80414 57.267 7.78919 57.3985 8.9541 57.2529C9.36438 57.2024 9.73936 57.4941 9.79102 57.9043C9.84186 58.3146 9.54985 58.6894 9.13965 58.7412C7.63852 58.9288 6.28869 58.7261 4.63086 57.6211C4.5789 57.5864 4.53344 57.5442 4.49316 57.5L4.42969 57.5518L3.96094 56.9658C3.63147 56.5539 3.33628 55.9171 3.06934 55.1982C2.79479 54.4587 2.52298 53.5551 2.26172 52.5537C1.7386 50.5483 1.24656 48.1012 0.856445 45.6787C0.466455 43.2568 0.175179 40.8394 0.0576172 38.8936C-0.000997011 37.9228 -0.0178636 37.0521 0.0214844 36.3506C0.0411642 36.0004 0.0756605 35.6767 0.129883 35.3975C0.181818 35.1305 0.262434 34.8464 0.40332 34.6113C1.08327 33.4785 2.10692 32.6008 3.13086 32.0293ZM105.204 31.2529C106.094 31.1423 107.211 31.4703 108.213 32.0293C109.237 32.6009 110.261 33.4784 110.94 34.6113C111.081 34.8464 111.162 35.1305 111.214 35.3975C111.268 35.6767 111.303 36.0004 111.322 36.3506C111.362 37.0521 111.345 37.9228 111.286 38.8936C111.169 40.8393 110.877 43.2569 110.487 45.6787C110.097 48.1011 109.605 50.5484 109.082 52.5537C108.821 53.555 108.549 54.4588 108.274 55.1982C108.008 55.9168 107.712 56.5538 107.383 56.9658L106.914 57.5518L106.851 57.5C106.81 57.544 106.765 57.5865 106.713 57.6211C105.055 58.7261 103.705 58.9286 102.204 58.7412C101.793 58.6898 101.502 58.315 101.553 57.9043C101.605 57.4939 101.979 57.2018 102.39 57.2529C103.554 57.3983 104.54 57.267 105.881 56.373C105.913 56.352 105.947 56.333 105.98 56.3174L106.212 56.0283C106.382 55.8149 106.61 55.3718 106.868 54.6768C107.119 54.0008 107.377 53.1487 107.631 52.1748C108.139 50.2276 108.622 47.8295 109.007 45.4404C109.392 43.0508 109.675 40.6854 109.789 38.8037C109.846 37.8617 109.859 37.0547 109.824 36.4346C109.807 36.1248 109.778 35.8737 109.741 35.6836C109.723 35.5898 109.704 35.5163 109.687 35.4629C109.678 35.4374 109.67 35.4171 109.664 35.4033C109.659 35.3923 109.655 35.3849 109.654 35.3828C109.135 34.5167 108.323 33.8098 107.481 33.3398C106.618 32.8583 105.834 32.6865 105.391 32.7412C104.98 32.7925 104.604 32.5005 104.553 32.0898C104.502 31.6793 104.793 31.3043 105.204 31.2529ZM91.584 27.0322C88.3234 26.7908 85.8684 27.8119 83.9736 29.5449C82.0983 31.2606 80.7915 33.6549 79.7559 36.1309C78.7272 38.5905 77.9245 41.2446 77.1289 43.4004C76.7255 44.4931 76.3195 45.4716 75.8799 46.2783C75.8664 46.303 75.8505 46.3283 75.8369 46.3525C75.7079 46.5225 75.5732 46.6928 75.4326 46.8535C75.0208 47.324 74.5849 47.7288 74.207 48.0088C74.0182 48.1486 73.8529 48.2504 73.7227 48.3135C73.6184 48.3638 73.5618 48.3776 73.5469 48.3809C73.1886 48.3812 72.8971 48.673 72.8965 49.0312C72.8971 49.3895 73.1886 49.6813 73.5469 49.6816C73.8148 49.6813 74.0768 49.586 74.2891 49.4834C74.5134 49.3748 74.7488 49.2252 74.9805 49.0537C75.4455 48.7091 75.949 48.237 76.4111 47.709C76.8733 47.1807 77.3124 46.5761 77.6377 45.96C77.6875 45.8656 77.735 45.767 77.7803 45.6699C78.1621 45.0562 78.5502 44.4068 78.9482 43.7764C79.6664 42.6389 80.4654 41.4968 81.4824 40.4912C81.0512 43.9281 81.113 48.7144 82.5156 52.5166C83.2561 54.5229 84.3862 56.2988 86.0547 57.4365C87.7362 58.5823 89.9083 59.0428 92.6406 58.5225L92.6836 58.5137L92.7246 58.498C95.4902 57.4441 97.697 55.1861 99.2285 52.3799C100.761 49.5715 101.638 46.1793 101.734 42.7949C101.925 36.0424 98.9861 29.1367 91.6846 27.0498L91.6348 27.0361L91.584 27.0322ZM27.1201 29.5117C25.2254 27.7788 22.77 26.7579 19.5098 26.999L19.459 27.0029L19.4092 27.0166C12.1072 29.1033 9.16867 36.0089 9.35938 42.7617C9.45538 46.146 10.333 49.5385 11.8652 52.3467C13.3968 55.1526 15.6037 57.4111 18.3691 58.4648L18.4102 58.4805L18.4531 58.4893C21.1851 59.0093 23.3577 58.5492 25.0391 57.4033C26.7073 56.2656 27.8377 54.4895 28.5781 52.4834C29.9806 48.6815 30.0424 43.8948 29.6113 40.458C30.628 41.4635 31.4276 42.606 32.1455 43.7432C32.5437 44.374 32.9324 45.0246 33.3145 45.6387C33.3593 45.7349 33.4067 45.8332 33.4561 45.9268C33.7814 46.5427 34.2206 47.1477 34.6826 47.6758C35.1447 48.2037 35.6484 48.6761 36.1133 49.0205C36.3448 49.1919 36.5804 49.3417 36.8047 49.4502C37.017 49.5527 37.279 49.6483 37.5469 49.6484C37.9046 49.6477 38.1962 49.3557 38.1973 48.998C38.1966 48.64 37.9049 48.3484 37.5469 48.3477C37.5354 48.3451 37.4799 48.3328 37.3711 48.2803C37.241 48.2173 37.0755 48.1153 36.8867 47.9756C36.509 47.6957 36.0729 47.2907 35.6611 46.8203C35.5191 46.658 35.3831 46.4852 35.2529 46.3135C35.2407 46.2914 35.2261 46.2675 35.2139 46.2451C34.7743 45.4386 34.3682 44.4597 33.9648 43.3672C33.1693 41.2117 32.3664 38.5571 31.3379 36.0977C30.3024 33.6221 28.995 31.2274 27.1201 29.5117ZM49.6572 52.0615C49.4167 51.725 48.9482 51.6471 48.6113 51.8867L45.1113 54.3867C44.7746 54.6274 44.6962 55.0957 44.9365 55.4326C45.1773 55.7691 45.6455 55.8477 45.9824 55.6074L49.4824 53.1074C49.8185 52.8666 49.8971 52.3982 49.6572 52.0615ZM63.9824 51.8867C63.6457 51.6464 63.1774 51.7253 62.9365 52.0615C62.6962 52.3985 62.7745 52.8668 63.1113 53.1074L66.6113 55.6074C66.9482 55.8474 67.4166 55.7692 67.6572 55.4326C67.8969 55.0958 67.8187 54.6273 67.4824 54.3867L63.9824 51.8867ZM95.7041 38.2959C96.3672 38.1073 97.0592 38.4914 97.249 39.1543C97.7219 40.8104 97.6523 42.8574 97.3281 44.7021C97.0027 46.5531 96.3864 48.3935 95.6113 49.6533C95.2496 50.2401 94.4801 50.4229 93.8926 50.0625C93.3048 49.7008 93.121 48.9307 93.4824 48.3428C94.04 47.4364 94.575 45.9253 94.8662 44.2695C95.1583 42.6075 95.1719 40.9852 94.8457 39.8418C94.6563 39.1781 95.0405 38.4856 95.7041 38.2959ZM13.8457 38.6543C14.0358 37.9915 14.7275 37.6068 15.3906 37.7959C16.0529 37.9862 16.4379 38.6789 16.249 39.3418C15.9228 40.4851 15.9365 42.1075 16.2285 43.7695C16.5197 45.4251 17.0548 46.9365 17.6123 47.8428C17.9725 48.4302 17.7887 49.2008 17.2021 49.5625C16.6149 49.9236 15.8456 49.7396 15.4834 49.1533C14.7084 47.8936 14.0921 46.0529 13.7666 44.2021C13.4424 42.3574 13.3728 40.3103 13.8457 38.6543ZM4.30273 26.0176C15.0264 6.92538 35.7442 -0.773079 55.8799 0.0605469C75.9663 0.892507 96.0562 10.2297 105.749 25.9473C106.328 26.887 106.036 28.1193 105.097 28.6992C104.157 29.2787 102.925 28.9863 102.345 28.0469C93.5377 13.7657 74.8763 4.85125 55.7139 4.05762C36.6004 3.26639 17.5677 10.5705 7.79102 27.9766C7.2501 28.9391 6.0302 29.2806 5.06738 28.7402C4.10474 28.1994 3.76237 26.9805 4.30273 26.0176Z" fill="#05D667"/>
</svg>
